HIERARCHY
ROOT Hips
{
 OFFSET 0.000000 0.000000 0.000000
 CHANNELS 6 Xposition Yposition Zposition Yrotation Xrotation Zrotation
 JOINT Chest
 {
  OFFSET 0.000000 9.585900 0.002600
  CHANNELS 3 Yrotation Xrotation Zrotation
  JOINT Chest2
  {
   OFFSET 0.000000 9.601200 -0.005300
   CHANNELS 3 Yrotation Xrotation Zrotation
   JOINT Chest3
   {
    OFFSET 0.000000 9.561800 0.000000
    CHANNELS 3 Yrotation Xrotation Zrotation
    JOINT Chest4
    {
     OFFSET 0.000000 9.552100 0.000000
     CHANNELS 3 Yrotation Xrotation Zrotation
     JOINT Neck
     {
      OFFSET 0.000000 14.453000 0.000000
      CHANNELS 3 Yrotation Xrotation Zrotation
      JOINT Head
      {
       OFFSET 0.000000 8.936500 -0.011300
       CHANNELS 3 Yrotation Xrotation Zrotation
       End Site
       {
        OFFSET 0.000000 17.073600 -0.006000
       }
      }
     }
     JOINT RightCollar
     {
      OFFSET -2.921100 9.558500 0.000000
      CHANNELS 3 Yrotation Xrotation Zrotation
      JOINT RightShoulder
      {
       OFFSET -13.519700 0.000000 0.000000
       CHANNELS 3 Yrotation Xrotation Zrotation
       JOINT RightElbow
       {
        OFFSET 0.000000 -29.696600 0.000000
        CHANNELS 3 Yrotation Xrotation Zrotation
        JOINT RightWrist
        {
         OFFSET 0.000000 -24.004700 0.000000
         CHANNELS 3 Yrotation Xrotation Zrotation
         End Site
         {
          OFFSET 0.000000 -17.728500 0.000000
         }
        }
       }
      }
     }
     JOINT LeftCollar
     {
      OFFSET 2.921100 9.558500 0.000000
      CHANNELS 3 Yrotation Xrotation Zrotation
      JOINT LeftShoulder
      {
       OFFSET 13.519700 0.000000 0.000000
       CHANNELS 3 Yrotation Xrotation Zrotation
       JOINT LeftElbow
       {
        OFFSET 0.000000 -29.696600 0.000000
        CHANNELS 3 Yrotation Xrotation Zrotation
        JOINT LeftWrist
        {
         OFFSET 0.000000 -24.004700 0.000000
         CHANNELS 3 Yrotation Xrotation Zrotation
         End Site
         {
          OFFSET 0.000000 -17.728500 0.000000
         }
        }
       }
      }
     }
    }
   }
  }
 }
 JOINT RightHip
 {
  OFFSET -7.771700 -0.012900 -0.001300
  CHANNELS 3 Yrotation Xrotation Zrotation
  JOINT RightKnee
  {
   OFFSET 0.000000 -40.869800 0.001200
   CHANNELS 3 Yrotation Xrotation Zrotation
   JOINT RightAnkle
   {
    OFFSET 0.000000 -39.717900 0.002100
    CHANNELS 3 Yrotation Xrotation Zrotation
    JOINT RightToe
    {
     OFFSET 0.000000 -4.965400 11.033500
     CHANNELS 3 Yrotation Xrotation Zrotation
     End Site
     {
      OFFSET 0.000000 -1.423100 5.872300
     }
    }
   }
  }
 }
 JOINT LeftHip
 {
  OFFSET 7.771700 -0.012900 -0.001300
  CHANNELS 3 Yrotation Xrotation Zrotation
  JOINT LeftKnee
  {
   OFFSET 0.000000 -40.869800 0.001200
   CHANNELS 3 Yrotation Xrotation Zrotation
   JOINT LeftAnkle
   {
    OFFSET 0.000000 -39.717900 0.002100
    CHANNELS 3 Yrotation Xrotation Zrotation
    JOINT LeftToe
    {
     OFFSET 0.000000 -4.965400 11.033500
     CHANNELS 3 Yrotation Xrotation Zrotation
     End Site
     {
      OFFSET 0.000000 -1.423100 5.872300
     }
    }
   }
  }
 }
}
MOTION
Frames: 11
Frame Time: 0.008333
-11.963506 53.814846 22.689532 -175.782063 -30.447326 -10.802327 -0.645956 12.848748 5.268579 -0.534860 7.406644 1.850238 -0.647851 9.208149 2.285392 -0.536602 7.388985 1.845700 3.702903 20.580714 0.160581 3.944890 -3.768490 -0.675403 -0.968563 1.505939 -3.423783 -16.597849 -6.073670 7.269105 39.036468 -76.359191 -14.946111 9.950398 -3.557760 -22.896792 -8.328374 3.767015 -3.674290 8.240115 -1.137014 -1.048793 -100.204586 -77.355587 98.339777 12.845273 -14.687787 5.483145 -19.745070 -33.772140 6.232123 -33.840104 87.039560 -35.595739 1.749386 -19.265213 -0.380150 -0.050441 0.263844 -0.022720 -15.914618 -47.395574 14.003774 170.268508 79.464287 164.707144 -1.997615 -15.733218 2.861827 -1.000079 -3.072316 -0.438157
-11.972275 53.887664 22.698442 -175.761970 -30.456249 -10.811834 -0.658224 12.864536 5.272676 -0.533035 7.417702 1.854446 -0.639055 9.239365 2.294378 -0.536779 7.402201 1.846424 3.704020 20.572690 0.153254 3.932322 -3.809505 -0.682904 -0.978287 1.494326 -3.434964 -16.606335 -6.098114 7.249364 39.099867 -76.390310 -15.008898 9.984959 -3.551300 -22.920711 -8.349003 3.769077 -3.681373 8.222675 -1.152657 -1.103582 -100.301597 -77.341274 98.480372 12.811726 -14.624798 5.496223 -19.777996 -33.786289 6.229112 -34.206393 87.058139 -35.983586 1.786689 -19.277680 -0.384240 -0.068220 0.270885 -0.022459 -15.897735 -47.376947 13.986855 170.218186 79.493317 164.654716 -2.006808 -15.705668 2.871268 -0.999404 -3.081679 -0.431822
-11.986107 53.949297 22.708183 -175.721388 -30.451142 -10.813034 -0.692198 12.883007 5.269165 -0.535334 7.415501 1.847432 -0.632627 9.271687 2.303206 -0.523062 7.463539 1.854051 3.710377 20.566141 0.141884 3.941651 -3.816426 -0.696612 -1.000661 1.417076 -3.454769 -16.614907 -6.100837 7.224615 39.181810 -76.429516 -15.085029 10.014478 -3.540179 -22.934283 -8.385315 3.720881 -3.684246 8.228312 -1.178155 -1.151262 -100.364741 -77.325962 98.581035 12.768189 -14.558578 5.439885 -19.830771 -33.822306 6.203645 -34.390219 87.098062 -36.183496 1.784684 -19.302462 -0.390741 -0.054087 0.283862 -0.022823 -15.892537 -47.386266 13.957751 170.131484 79.510276 164.553730 -2.031350 -15.669458 2.900584 -0.996147 -3.095304 -0.433833
-11.998701 54.004827 22.714352 -175.695072 -30.469178 -10.824570 -0.675894 12.924502 5.299307 -0.528370 7.452790 1.854346 -0.656274 9.257700 2.292925 -0.522919 7.495202 1.853451 3.714512 20.568612 0.137201 3.947258 -3.813403 -0.702577 -1.019913 1.351065 -3.463338 -16.624127 -6.092867 7.207949 39.352990 -76.448266 -15.271407 10.016168 -3.532998 -22.922298 -8.419781 3.704497 -3.679066 8.240099 -1.224112 -1.181508 -100.365072 -77.315940 98.604603 12.730132 -14.501599 5.375171 -19.852383 -33.836117 6.195578 -34.847397 87.133226 -36.666264 1.809388 -19.323984 -0.384362 -0.088505 0.292357 -0.021245 -15.889409 -47.368153 13.939375 170.099637 79.519798 164.518052 -2.048262 -15.668909 2.909510 -0.984523 -3.085017 -0.428307
-12.011268 54.053143 22.720561 -175.680138 -30.483890 -10.835025 -0.677610 12.949695 5.308295 -0.525053 7.459389 1.857112 -0.649949 9.292097 2.295001 -0.523662 7.508023 1.858599 3.716128 20.576048 0.132637 3.941606 -3.846302 -0.708808 -1.032788 1.300624 -3.472452 -16.635410 -6.084536 7.194401 39.519294 -76.465049 -15.438537 9.998831 -3.523875 -22.924420 -8.449957 3.702350 -3.675660 8.251917 -1.267904 -1.211226 -100.399841 -77.294482 98.609829 12.688783 -14.452244 5.356067 -19.863166 -33.856815 6.198159 -35.599029 87.160645 -37.432473 1.798601 -19.349332 -0.369010 -0.081666 0.307431 -0.017398 -15.895755 -47.358914 13.933885 170.049179 79.517889 164.458066 -2.047992 -15.671528 2.908750 -0.992085 -3.075757 -0.419364
-12.027012 54.094581 22.727340 -175.652432 -30.487307 -10.833415 -0.673316 12.970157 5.318912 -0.543126 7.458717 1.846936 -0.628692 9.372395 2.315896 -0.545751 7.471642 1.847656 3.716301 20.587082 0.127040 3.937772 -3.877851 -0.716862 -1.035895 1.277409 -3.493699 -16.662132 -6.095467 7.198428 39.556426 -76.493238 -15.511982 9.984452 -3.523173 -22.881126 -8.472427 3.698150 -3.675295 8.269392 -1.295558 -1.256332 -100.540490 -77.246844 98.683832 12.649296 -14.407076 5.372225 -19.874963 -33.895153 6.182649 -36.383195 87.195252 -38.241938 1.812373 -19.386399 -0.362261 -0.105235 0.329831 -0.002912 -15.885643 -47.366576 13.906351 170.015702 79.518805 164.417559 -2.079765 -15.683158 2.924852 -0.959156 -3.055344 -0.418250
-12.048683 54.130226 22.734036 -175.586962 -30.480094 -10.813080 -0.728320 12.989233 5.279638 -0.544214 7.471796 1.848054 -0.628278 9.386862 2.317729 -0.550933 7.484630 1.847978 3.711330 20.563923 0.116789 3.947638 -3.826206 -0.720032 -1.045008 1.225374 -3.504586 -16.681715 -6.081227 7.183095 39.523818 -76.524327 -15.466996 9.963519 -3.521789 -22.873621 -8.482675 3.665615 -3.676263 8.281009 -1.297028 -1.295475 -100.651073 -77.183006 98.673920 12.610969 -14.394629 5.461469 -19.900981 -33.954271 6.141401 -37.531917 87.231824 -39.442686 1.811074 -19.427510 -0.319270 -0.081858 0.337145 -0.009389 -15.871867 -47.387360 13.827808 169.978634 79.520617 164.370137 -2.142535 -15.724991 2.939961 -0.912600 -3.000791 -0.401158
-12.065431 54.163085 22.740516 -175.567110 -30.479079 -10.795187 -0.719569 13.002808 5.276885 -0.551534 7.484312 1.847769 -0.643374 9.407081 2.315746 -0.558574 7.465309 1.842717 3.718065 20.621781 0.122433 3.954261 -3.772021 -0.723140 -1.054343 1.202268 -3.510343 -16.698912 -6.069339 7.166142 39.453034 -76.556591 -15.382654 9.929775 -3.526243 -22.867617 -8.486880 3.662028 -3.676413 8.277188 -1.294386 -1.349648 -100.725386 -77.096607 98.688431 12.585428 -14.396985 5.539120 -19.886929 -34.010654 6.102826 -38.324411 87.280370 -40.242373 1.800898 -19.456289 -0.300509 -0.078217 0.345437 -0.011867 -15.850481 -47.395003 13.794606 170.023169 79.528975 164.401025 -2.184977 -15.771183 2.953959 -0.877421 -2.944165 -0.387420
-12.079734 54.194689 22.744946 -175.538491 -30.488359 -10.791260 -0.727908 13.030409 5.274956 -0.537652 7.535952 1.864344 -0.672124 9.363923 2.297253 -0.561558 7.469973 1.842869 3.725000 20.682195 0.129066 3.957612 -3.766027 -0.730183 -1.081678 1.202487 -3.526420 -16.701349 -6.081057 7.166647 39.041820 -76.605732 -14.983322 9.960286 -3.546170 -22.850623 -8.492057 3.682310 -3.680843 8.276387 -1.342318 -1.360201 -100.702091 -77.053402 98.614383 12.575068 -14.411959 5.623928 -19.853480 -34.049618 6.077843 -39.428359 87.309873 -41.354194 1.782972 -19.483625 -0.256638 -0.079468 0.351281 -0.016470 -15.854617 -47.400583 13.769843 169.979174 79.519301 164.342424 -2.201603 -15.783495 2.960990 -0.874659 -2.924777 -0.380934
-12.098378 54.223336 22.749417 -175.461089 -30.485837 -10.778189 -0.778135 13.058790 5.244350 -0.547312 7.557563 1.864673 -0.676236 9.399054 2.301956 -0.567544 7.525934 1.849391 3.719040 20.627152 0.110735 3.957748 -3.769030 -0.736711 -1.089852 1.070708 -3.548086 -16.726873 -6.067773 7.153129 38.710058 -76.644553 -14.653792 9.966628 -3.579777 -22.845288 -8.491942 3.589546 -3.684254 8.248574 -1.377411 -1.383464 -100.685829 -77.000070 98.565990 12.553891 -14.437486 5.756801 -19.861482 -34.098639 6.020837 -40.488440 87.348802 -42.440822 1.765914 -19.524413 -0.219214 -0.088457 0.361931 -0.013697 -15.869079 -47.420444 13.702185 169.944236 79.518317 164.284608 -2.224572 -15.788847 2.980566 -0.866948 -2.901195 -0.377610
-12.110732 54.251175 22.754233 -175.437949 -30.487410 -10.767076 -0.756823 13.118072 5.264548 -0.581970 7.522416 1.841191 -0.672294 9.467801 2.316756 -0.574134 7.549880 1.851618 3.712004 20.597035 0.096275 3.954482 -3.780331 -0.745915 -1.111390 0.971736 -3.578728 -16.736184 -6.069395 7.157504 38.473787 -76.669595 -14.416161 9.986804 -3.604440 -22.839038 -8.495783 3.512413 -3.687139 8.219421 -1.412512 -1.404574 -100.681178 -76.962113 98.536082 12.524458 -14.462027 5.918587 -19.841050 -34.142299 6.003512 -41.476022 87.378190 -43.443156 1.730241 -19.554518 -0.183518 -0.072009 0.372588 -0.014094 -15.868625 -47.430061 13.681531 169.963542 79.516032 164.287667 -2.247845 -15.813313 2.989525 -0.852317 -2.868865 -0.370445
